<?xml version="1.0" encoding="iso-8859-1"?>
<!-- Generator: Adobe Illustrator 17.1.0, SVG Export Plug-In . SVG Version: 6.00 Build 0)  -->
<!DOCTYPE svg PUBLIC "-//W3C//DTD SVG 1.1//EN" "http://www.w3.org/Graphics/SVG/1.1/DTD/svg11.dtd">
<svg version="1.1" id="Capa_1" xmlns="http://www.w3.org/2000/svg" xmlns:xlink="http://www.w3.org/1999/xlink" x="0px" y="0px"
	 viewBox="0 0 466 466" style="enable-background:new 0 0 466 466;" xml:space="preserve">
<path d="M317.472,198.386V97.143c0-0.003,0-0.007,0-0.01V84.472C317.472,37.894,279.578,0,233,0
	c-27.49,0-49.854,22.365-49.854,49.855v49.288c-20.97,15.385-34.617,40.191-34.617,68.134v90.252
	c0,38.064,19.139,56.448,53.883,89.821c6.769,6.502,14.371,13.807,22.589,21.975v13.387c-20.483-20.414-41.116-40.862-41.369-41.112
	c-3.139-3.11-8.203-3.086-11.313,0.052s-3.087,8.204,0.052,11.313c0.3,0.297,29.268,29.004,52.631,52.35v32.682
	c0,0.002,0,0.003,0,0.005V458c0,4.418,3.582,8,8,8s8-3.582,8-8v-16.685c8.305-8.299,17.27-17.227,25.412-25.325
	c3.133-3.116,3.146-8.181,0.03-11.314c-3.115-3.132-8.181-3.145-11.313-0.031c-4.539,4.514-9.334,9.288-14.129,14.067v-13.397
	c23.363-23.346,52.331-52.053,52.631-52.35c3.139-3.11,3.162-8.175,0.052-11.313c-3.109-3.139-8.175-3.161-11.313-0.052
	c-0.253,0.25-20.886,20.698-41.369,41.112v-13.387c8.218-8.169,15.82-15.474,22.59-21.976c34.743-33.373,53.882-51.755,53.882-89.82
	v-59.132C317.472,198.393,317.472,198.389,317.472,198.386z M301.472,84.472v9.352l-25.895,25.895
	c-3.124,3.124-3.124,8.189,0,11.313c1.563,1.562,3.609,2.343,5.657,2.343s4.095-0.781,5.657-2.343l14.58-14.58v78.625L241,255.548
	v-78.626l25.894-25.894c3.124-3.124,3.124-8.189,0-11.313c-3.125-3.124-8.189-3.124-11.314,0L241,154.295V16.483
	C274.998,20.459,301.472,49.424,301.472,84.472z M199.146,49.855c0-15.912,11.037-29.287,25.854-32.892v66.231
	c-9.115,0.861-17.808,3.18-25.854,6.715V49.855z M164.528,257.528v-90.252c0-35.048,26.474-64.012,60.472-67.989v74.316
	c0,0.003,0,0.007,0,0.01v101.243c0,0.003,0,0.007,0,0.01v72.036c-4.05-3.931-7.896-7.627-11.505-11.093
	C179.873,303.516,164.528,288.776,164.528,257.528z M252.506,335.809c-3.609,3.467-7.456,7.162-11.506,11.094v-68.727l60.472-60.471
	v39.823C301.472,288.776,286.127,303.515,252.506,335.809z"/>
<g>
</g>
<g>
</g>
<g>
</g>
<g>
</g>
<g>
</g>
<g>
</g>
<g>
</g>
<g>
</g>
<g>
</g>
<g>
</g>
<g>
</g>
<g>
</g>
<g>
</g>
<g>
</g>
<g>
</g>
</svg>
