<?xml version="1.0" encoding="iso-8859-1"?>
<!-- Generator: Adobe Illustrator 19.0.0, SVG Export Plug-In . SVG Version: 6.00 Build 0)  -->
<svg version="1.1" id="Layer_1" xmlns="http://www.w3.org/2000/svg" xmlns:xlink="http://www.w3.org/1999/xlink" x="0px" y="0px"
	 viewBox="0 0 512.001 512.001" style="enable-background:new 0 0 512.001 512.001;" xml:space="preserve">
<g>
	<g>
		<path d="M183.334,0h-48c-19.606,0-35.556,15.951-35.556,35.556v392.888c0,1.78,0.535,3.519,1.534,4.991l50.667,74.667
			c1.655,2.438,4.409,3.898,7.356,3.898c2.946,0,5.702-1.46,7.356-3.898l50.667-74.667c0.999-1.472,1.534-3.211,1.534-4.991V35.556
			C218.89,15.951,202.94,0,183.334,0z M117.557,35.556c0-9.802,7.976-17.777,17.777-17.777h48c9.803,0,17.777,7.976,17.777,17.777
			v24.889h-83.555V35.556z M159.334,487.279l-12.483-18.396c3.968-1.447,8.175-2.215,12.481-2.215c4.311,0,8.52,0.767,12.488,2.212
			L159.334,487.279z M182.017,453.852c-7.066-3.259-14.771-4.963-22.686-4.963c-7.909,0-15.61,1.706-22.677,4.967l-11.212-16.523
			h67.784L182.017,453.852z M201.111,419.555h-83.555v-311.11h83.555V419.555z M201.111,90.666h-83.555V78.222h83.555V90.666z"/>
	</g>
</g>
<g>
	<g>
		<path d="M159.334,122.667c-4.91,0-8.889,3.98-8.889,8.889v266.667c0,4.909,3.979,8.889,8.889,8.889s8.889-3.98,8.889-8.889
			V131.556C168.223,126.647,164.244,122.667,159.334,122.667z"/>
	</g>
</g>
<g>
	<g>
		<path d="M403.334,213.333c-6.861,0-12.444-5.582-12.444-12.444V69.333c0-16.664-13.557-30.222-30.223-30.222h-9.333h-6.223V10.667
			c0-4.909-3.979-8.889-8.889-8.889h-71.111c-4.91,0-8.889,3.98-8.889,8.889v28.445h-6.221c-4.91,0-8.889,3.98-8.889,8.889v334.305
			c0,47.508,19.436,93.851,53.326,127.147c1.729,1.698,3.979,2.548,6.23,2.548s4.5-0.85,6.23-2.548
			c33.891-33.296,53.326-79.638,53.326-127.147V56.889h0.443c6.861,0,12.444,5.583,12.444,12.444v131.555
			c0,16.664,13.557,30.222,30.223,30.222c4.91,0,8.889-3.98,8.889-8.889C412.223,217.312,408.243,213.333,403.334,213.333z
			 M274.001,19.557h53.332v19.555h-53.332V19.557z M300.668,490.289c-24.659-27.162-39.444-62.466-41.516-99.095h83.031
			C340.111,427.823,325.327,463.126,300.668,490.289z M342.445,373.415H258.89V129.778h83.555V373.415z M342.445,112H258.89v-55.11
			h83.555V112z"/>
	</g>
</g>
<g>
</g>
<g>
</g>
<g>
</g>
<g>
</g>
<g>
</g>
<g>
</g>
<g>
</g>
<g>
</g>
<g>
</g>
<g>
</g>
<g>
</g>
<g>
</g>
<g>
</g>
<g>
</g>
<g>
</g>
</svg>
