<?xml version="1.0" encoding="iso-8859-1"?>
<!-- Generator: Adobe Illustrator 18.0.0, SVG Export Plug-In . SVG Version: 6.00 Build 0)  -->
<!DOCTYPE svg PUBLIC "-//W3C//DTD SVG 1.1//EN" "http://www.w3.org/Graphics/SVG/1.1/DTD/svg11.dtd">
<svg version="1.1" id="Capa_1" xmlns="http://www.w3.org/2000/svg" xmlns:xlink="http://www.w3.org/1999/xlink" x="0px" y="0px"
	 viewBox="0 0 480 480" style="enable-background:new 0 0 480 480;" xml:space="preserve">
<g>
	<path d="M480,181.412H362.189C340.297,135.939,293.754,104.48,240,104.48c-53.753,0-100.296,31.459-122.188,76.932H0v117.176
		h117.812C139.704,344.06,186.247,375.52,240,375.52c53.754,0,100.297-31.459,122.189-76.932H480V181.412z M20,278.588v-77.176
		h90.086c-3.641,12.235-5.606,25.186-5.606,38.588s1.965,26.353,5.606,38.588H20z M240,355.52
		c-63.698,0-115.52-51.822-115.52-115.52S176.302,124.48,240,124.48c63.697,0,115.52,51.822,115.52,115.52
		S303.697,355.52,240,355.52z M460,278.588h-90.086c3.641-12.235,5.605-25.186,5.605-38.588s-1.965-26.352-5.605-38.588H460V278.588
		z"/>
	<polygon points="230,235.758 202.898,262.86 217.04,277.003 250,244.043 250,188.068 230,188.068 	"/>
	<path d="M240,142.71c-53.646,0-97.29,43.645-97.29,97.29s43.644,97.29,97.29,97.29c53.646,0,97.29-43.645,97.29-97.29
		S293.646,142.71,240,142.71z M240,317.29c-42.618,0-77.29-34.672-77.29-77.29s34.672-77.29,77.29-77.29
		c42.618,0,77.29,34.672,77.29,77.29S282.618,317.29,240,317.29z"/>
</g>
<g>
</g>
<g>
</g>
<g>
</g>
<g>
</g>
<g>
</g>
<g>
</g>
<g>
</g>
<g>
</g>
<g>
</g>
<g>
</g>
<g>
</g>
<g>
</g>
<g>
</g>
<g>
</g>
<g>
</g>
</svg>
